<svg width="40" height="40" viewBox="0 0 40 40" fill="none" xmlns="http://www.w3.org/2000/svg">
<mask id="mask0_804_5584" style="mask-type:alpha" maskUnits="userSpaceOnUse" x="0" y="0" width="40" height="40">
<g clip-path="url(#clip0_804_5584)">
<path d="M19.9999 0C14.6685 0 11.3366 4.44454 10.0036 13.3328C12.0031 8.88824 14.3355 7.22216 17.001 8.33288C18.5219 8.96662 19.6089 10.807 20.8124 12.8433C22.7723 16.1604 25.0408 19.9996 29.9962 19.9996C35.3271 19.9996 38.6595 15.555 39.992 6.66597C37.993 11.1105 35.6606 12.7774 32.9946 11.6667C31.4742 11.033 30.3872 9.1926 29.1837 7.15629C27.2237 3.83915 24.9548 0 19.9999 0ZM10.0036 19.9996C4.67272 19.9996 1.34028 24.4441 0.0078125 33.3332C2.00677 28.8887 4.33922 27.2217 7.00517 28.3333C8.52563 28.9679 9.61261 30.8074 10.8161 32.8429C12.776 36.16 15.045 40 19.9999 40C25.3313 40 28.6632 35.5555 29.9962 26.6664C27.9967 31.1109 25.6643 32.7778 22.9988 31.6663C21.4779 31.0334 20.3909 29.1922 19.1874 27.1567C17.2275 23.8396 14.959 19.9996 10.0036 19.9996Z" fill="#06B6D4"/>
</g>
</mask>
<g mask="url(#mask0_804_5584)">
<rect x="-41" y="-98" width="211" height="169" fill="white"/>
</g>
<defs>
<clipPath id="clip0_804_5584">
<rect width="40" height="40" fill="white"/>
</clipPath>
</defs>
</svg>
