<svg width="24" height="24" viewBox="0 0 24 24" fill="none" xmlns="http://www.w3.org/2000/svg">
<g clip-path="url(#clip0_815_23958)">
<path d="M14.5935 2.6665H5.22017C4.89008 2.67524 4.57678 2.81389 4.34834 3.05231C4.1199 3.29074 3.99478 3.60968 4.00017 3.93984V20.0598C3.99478 20.39 4.1199 20.7089 4.34834 20.9474C4.57678 21.1858 4.89008 21.3244 5.22017 21.3332H18.7802C19.1103 21.3244 19.4236 21.1858 19.652 20.9474C19.8804 20.7089 20.0056 20.39 20.0002 20.0598V7.9465L14.5935 2.6665ZM14.3935 4.3265L18.3935 8.25984H14.3935V4.3265ZM5.3335 19.9998V3.99984H13.3335V9.33317H18.6668V19.9998H5.3335Z" fill="#A9AFF7"/>
</g>
<defs>
<clipPath id="clip0_815_23958">
<rect width="24" height="24" fill="white"/>
</clipPath>
</defs>
</svg>
