<svg width="24" height="24" viewBox="0 0 24 24" fill="none" xmlns="http://www.w3.org/2000/svg">
<g clip-path="url(#clip0_815_24009)">
<path d="M12.0671 7.3335C9.46706 7.3335 7.40039 9.40016 7.40039 12.0002C7.40039 14.6002 9.46706 16.6668 12.0671 16.6668C14.6671 16.6668 16.7337 14.6002 16.7337 12.0002C16.7337 9.40016 14.6671 7.3335 12.0671 7.3335ZM12.0671 15.3335C10.2004 15.3335 8.73372 13.8668 8.73372 12.0002C8.73372 10.1335 10.2004 8.66683 12.0671 8.66683C13.9337 8.66683 15.4004 10.1335 15.4004 12.0002C15.4004 13.8668 13.9337 15.3335 12.0671 15.3335Z" fill="#A9AFF7"/>
<path d="M21.8673 9.80016L20.0007 9.20016L19.6007 8.20016L20.534 6.46683C20.734 6.06683 20.6673 5.5335 20.334 5.20016L18.734 3.60016C18.4007 3.26683 17.8673 3.20016 17.4673 3.40016L15.734 4.3335L14.734 3.9335L14.134 2.06683C14.0007 1.66683 13.6007 1.3335 13.134 1.3335H10.8673C10.4007 1.3335 10.0007 1.66683 9.93398 2.1335L9.33398 4.00016C8.93398 4.06683 8.60065 4.20016 8.26732 4.40016L6.53398 3.46683C6.13398 3.26683 5.60065 3.3335 5.26732 3.66683L3.66732 5.26683C3.33398 5.60016 3.26732 6.1335 3.46732 6.5335L4.33398 8.20016C4.20065 8.5335 4.06732 8.9335 3.93398 9.26683L2.06732 9.86683C1.66732 10.0002 1.33398 10.4002 1.33398 10.8668V13.1335C1.33398 13.6002 1.66732 14.0002 2.13398 14.1335L4.00065 14.7335L4.40065 15.7335L3.46732 17.4668C3.26732 17.8668 3.33398 18.4002 3.66732 18.7335L5.26732 20.3335C5.60065 20.6668 6.13398 20.7335 6.53398 20.5335L8.26732 19.6002L9.26732 20.0002L9.86732 21.9335C10.0007 22.3335 10.4007 22.6668 10.8673 22.6668H13.134C13.6007 22.6668 14.0007 22.3335 14.134 21.9335L14.734 20.0002L15.734 19.6002L17.4673 20.5335C17.8673 20.7335 18.4007 20.6668 18.734 20.3335L20.334 18.7335C20.6673 18.4002 20.734 17.8668 20.534 17.4668L19.6007 15.7335L20.0007 14.7335L21.934 14.1335C22.334 14.0002 22.6673 13.6002 22.6673 13.1335V10.8668C22.6673 10.4002 22.334 9.9335 21.8673 9.80016ZM21.334 12.9335L18.934 13.6668L18.8673 14.0002L18.2673 15.4002L18.0673 15.7335L19.2673 17.9335L17.934 19.2668L15.734 18.0668L15.4007 18.2668C14.934 18.5335 14.4673 18.7335 14.0007 18.8668L13.6673 18.9335L12.934 21.3335H11.0673L10.334 18.9335L10.0007 18.8668L8.60065 18.2668L8.26732 18.0668L6.06732 19.2668L4.73398 17.9335L5.93398 15.7335L5.73398 15.4002C5.46732 14.9335 5.26732 14.4668 5.13398 14.0002L5.06732 13.6668L2.66732 12.9335V11.0668L4.93398 10.4002L5.06732 10.0668C5.20065 9.5335 5.40065 9.06683 5.66732 8.60016L5.86732 8.26683L4.73398 6.06683L6.06732 4.7335L8.20065 5.9335L8.53398 5.7335C9.00065 5.46683 9.46732 5.26683 10.0007 5.1335L10.334 5.00016L11.0673 2.66683H12.934L13.6673 5.00016L14.0007 5.1335C14.4673 5.26683 14.934 5.46683 15.4007 5.7335L15.734 5.9335L17.934 4.7335L19.2673 6.06683L18.0673 8.26683L18.2673 8.60016C18.534 9.06683 18.734 9.5335 18.8673 10.0002L18.934 10.3335L21.334 11.0668V12.9335Z" fill="#A9AFF7"/>
</g>
<defs>
<clipPath id="clip0_815_24009">
<rect width="24" height="24" fill="white"/>
</clipPath>
</defs>
</svg>
