<svg width="22" height="20" viewBox="0 0 22 20" fill="none" xmlns="http://www.w3.org/2000/svg">
<path d="M15.2222 17.9998V16.2221C15.2222 15.2791 14.8476 14.3747 14.1808 13.7079C13.514 13.0411 12.6097 12.6665 11.6667 12.6665H4.55555C3.61256 12.6665 2.70819 13.0411 2.0414 13.7079C1.3746 14.3747 1 15.2791 1 16.2221V17.9998" stroke="#A9AFF7" stroke-width="1.5" stroke-linecap="round" stroke-linejoin="round"/>
<path d="M8.11024 9.11111C10.0739 9.11111 11.6658 7.51923 11.6658 5.55555C11.6658 3.59188 10.0739 2 8.11024 2C6.14656 2 4.55469 3.59188 4.55469 5.55555C4.55469 7.51923 6.14656 9.11111 8.11024 9.11111Z" stroke="#A9AFF7" stroke-width="1.5" stroke-linecap="round" stroke-linejoin="round"/>
<path d="M20.5553 18V16.2222C20.5548 15.4344 20.2925 14.6691 19.8099 14.0465C19.3272 13.4239 18.6515 12.9792 17.8887 12.7822" stroke="#A9AFF7" stroke-width="1.5" stroke-linecap="round" stroke-linejoin="round"/>
<path d="M14.334 2.11572C15.0988 2.31155 15.7767 2.75635 16.2608 3.38C16.7449 4.00365 17.0076 4.77068 17.0076 5.56017C17.0076 6.34965 16.7449 7.11668 16.2608 7.74033C15.7767 8.36399 15.0988 8.80879 14.334 9.00461" stroke="#A9AFF7" stroke-width="1.5" stroke-linecap="round" stroke-linejoin="round"/>
</svg>
